# xmcd
#
# Track frame offsets: 
#        150
#        24870
#        36476
#        60023
#        89059
#        111609
#        141747
#        174462
#        190241
#        206905
#        236992
#        274860
#
# Disc length: 4038 seconds
#
# Revision: 0
# Processed by: cddbd v1.5.2PL0 Copyright (c) Steve Scherf et al.
# Submitted via: ExactAudioCopy v1.0b1
#
DISCID=bb0fc40c
DTITLE=Eric Clapton  - Complete Unplugged  - 1992-01-16 - Disc 2
DYEAR=1900
DGENRE=
TTITLE0=Malted Milk
TTITLE1=Signe
TTITLE2=Tears in Heaven (take 2)
TTITLE3=My Father's Eyes (take 2)
TTITLE4=Rollin' and Tumblin'
TTITLE5=Running on Faith (take 2)
TTITLE6=Walking Blues (take 2)
TTITLE7=San Francisco Bay Blues (take 2)
TTITLE8=Malted Milk (take 2)
TTITLE9=Worried Life Blues
TTITLE10=Old Love
TTITLE11=Rollin' and Tumblin' (bonus)
EXTD=
EXTT0=
EXTT1=
EXTT2=
EXTT3=
EXTT4=
EXTT5=
EXTT6=
EXTT7=
EXTT8=
EXTT9=
EXTT10=
EXTT11=
PLAYORDER=
